<svg xmlns="http://www.w3.org/2000/svg" viewBox="0 0 900 745"><title>Acelera SEO</title><defs><linearGradient id="g0" x1="404.3" x2="461.4" y1="740.8" y2="62.8" gradientUnits="userSpaceOnUse"><stop offset="0" stop-color="#264779"/><stop offset=".2" stop-color="#345a84"/><stop offset=".4" stop-color="#4a7698"/><stop offset=".6" stop-color="#578ba7"/><stop offset=".8" stop-color="#5496af"/><stop offset="1" stop-color="#539bb4"/></linearGradient><linearGradient id="g1" x1="487.8" x2="385" y1="53.8" y2="302.6" gradientUnits="userSpaceOnUse"><stop offset="0" stop-color="#83bdd1"/><stop offset=".2" stop-color="#7eb8ce"/><stop offset=".4" stop-color="#79b1c9"/><stop offset=".6" stop-color="#73abc3"/><stop offset=".8" stop-color="#6da6be"/><stop offset="1" stop-color="#6aa2b9"/></linearGradient><linearGradient id="g2" x1="479.8" x2="118.1" y1="235.8" y2="364.5" gradientUnits="userSpaceOnUse"><stop offset="0" stop-color="#5c8fab"/><stop offset=".2" stop-color="#5384a1"/><stop offset=".4" stop-color="#477494"/><stop offset=".6" stop-color="#3e688b"/><stop offset=".8" stop-color="#3e698c"/><stop offset="1" stop-color="#3e698c"/></linearGradient><linearGradient id="g3" x1="516.5" x2="881" y1="301.8" y2="86.3" gradientUnits="userSpaceOnUse"><stop offset="0" stop-color="#81bdd2"/><stop offset=".2" stop-color="#8bc7d8"/><stop offset=".4" stop-color="#8fcdda"/><stop offset=".6" stop-color="#8bcfdb"/><stop offset=".8" stop-color="#86cedc"/><stop offset="1" stop-color="#83cada"/></linearGradient><linearGradient id="g4" x1="562.7" x2="770.1" y1="583.7" y2="601" gradientUnits="userSpaceOnUse"><stop offset="0" stop-color="#648dae"/><stop offset=".2" stop-color="#5987a4"/><stop offset=".4" stop-color="#5383a0"/><stop offset=".6" stop-color="#4e7f9c"/><stop offset=".8" stop-color="#4d7d9a"/><stop offset="1" stop-color="#4f7b98"/></linearGradient><linearGradient id="g5" x1="570.2" x2="651.3" y1="664.7" y2="552.9" gradientUnits="userSpaceOnUse"><stop offset="0" stop-color="#4a7192"/><stop offset=".2" stop-color="#497092"/><stop offset=".4" stop-color="#456d8f"/><stop offset=".6" stop-color="#436a8c"/><stop offset=".8" stop-color="#406889"/><stop offset="1" stop-color="#3e6685"/></linearGradient><linearGradient id="g6" x1="233.5" x2="280.6" y1="182.5" y2="324.3" gradientUnits="userSpaceOnUse"><stop offset="0" stop-color="#70a1bd"/><stop offset=".2" stop-color="#6c9db9"/><stop offset=".4" stop-color="#6697b4"/><stop offset=".6" stop-color="#6090ae"/><stop offset=".8" stop-color="#5a8aa8"/><stop offset="1" stop-color="#5685a5"/></linearGradient><linearGradient id="g7" x1="135" x2="144.9" y1="476" y2="490.4" gradientUnits="userSpaceOnUse"><stop offset="0" stop-color="#4b6991"/><stop offset=".2" stop-color="#37547c"/><stop offset=".4" stop-color="#2c456c"/><stop offset=".6" stop-color="#2c4267"/><stop offset=".8" stop-color="#2c4064"/><stop offset="1" stop-color="#283a5e"/></linearGradient><linearGradient id="g8" x1="487.3" x2="490.7" y1="516" y2="523.6" gradientUnits="userSpaceOnUse"><stop offset="0" stop-color="#324c72"/><stop offset=".2" stop-color="#314a6f"/><stop offset=".4" stop-color="#2f466b"/><stop offset=".6" stop-color="#2b4165"/><stop offset=".8" stop-color="#273c5d"/><stop offset="1" stop-color="#243756"/></linearGradient><clipPath id="sil"><path d="M888 11c2.1 3.2 2.2 3.7 2 7.3V21l-.2 2.9-.2 3q-1 15.9-2.6 31.8l-.5 6.3-1.6 16.5-1.5 16.5-.6 6.5-.3 3.2-.9 9.6q-3.5 37.6-6.5 75.3l-.3 3a4805 4805 0 0 0-4.7 66l-.5 6.7-.6 8.8-.2 3-.2 3-.2 2.5q-.7 3.9-2.4 7.5c-3.8-.5-5.8-1.3-8.6-4q-7.7-7-16.4-13c-29.4-21.6-29.4-21.6-33.5-25.4-2.4-2.1-4-3.5-7.2-4.2-3.1.8-3.8 1.9-5.5 4.6l-1.8 2.8-4.3 7q-7.4 12.1-16.3 23.4L764 295l-1.8 2.4q-5.4 6.9-10.4 14-11.6 16.3-24.8 31.3l-7.1 8.3a436 436 0 0 1-28 30.2q-6.2 6.1-11.9 12.9c-2.3 2.5-2.3 2.5-4 4h-2l-1 3c-1.5 1.5-1.5 1.5-3.4 3q-5 4.3-9.6 9a176 176 0 0 1-10.8 10l-5.1 4.8c-10 9.4-20.8 17.6-32 25.6q-5.2 3.6-10.2 7.7c-11.1 9-23.4 16.4-35.5 24q-6.2 3.7-12.3 7.7a452 452 0 0 1-129.2 55l-2.5.7q-16.5 4.4-33.3 8.2t-33.3 8l-10 2.5c-32.9 8.2-32.9 8.2-46.9 14l-2.8 1.2c-35.8 15.3-52.5 44-70.5 77A140 140 0 0 1 179 711l-3.2 2.1A144 144 0 0 1 119 732l-2.5.4a286 286 0 0 1-91-2.7A53 53 0 0 1 11 724a53 53 0 0 1 6-19.8l1.5-3.4L23 691l1.2-2.7q6.4-14 13.7-27.4l9.5-18.8c14-28.4 29-55.2 50.5-78.8l5.6-6.3 15.9-18q11.7-13.2 25.6-24l2.8-2.3q22.3-17.5 47.2-30.7l2.1-1.1c17.4-9.3 36.2-15 54.9-20.9l3.8-1.2a1024 1024 0 0 1 37-11q14.5-4 28.8-8.4l2.3-.7q11.6-3.6 23-7.4 8.8-2.9 17.7-4.9a456 456 0 0 0 95.5-35.2q9.7-4.7 19.8-8.5c7.9-3 15.5-6.4 21.8-12.2a76 76 0 0 1 18.1-12q12.3-6.1 23.2-14.5l2.1-1.7 5.8-4.6 2-1.6q7.5-6 14.3-12.7 5.7-5.3 11.9-10 9.8-7.6 18.9-16.4l2.2-2q6.6-6.8 12.4-14 3.8-4.6 7.9-9a310 310 0 0 0 18.7-22.1l2.2-2.8 6-7q10.1-12.2 19.3-25.2 3.8-5.5 7.8-10.9l18.5-25.8c3.5-4.9 6.8-9.6 9-15.2-3-10.1-22-18.7-30.2-24q-11.3-7.5-21.8-16l-2.3-1.8c-4.4-3.5-4.4-3.5-5.6-6-.1-3.4 1.6-4.8 3.9-7.2 9-5.6 19.3-9.2 29.1-12.8l12.3-4.6 2.5-1c26.3-9.8 52.2-20.8 78.1-31.6l5.9-2.4L798 45.5l45-18.8 4.8-1.9 14.3-6 2.6-1 4.9-2.2C882 10.3 882 10.3 888 11"/><path d="m398.6 14.8 6.9-.1c13.8-.1 27.3 1.4 40.3 6.5l2.4.9A94 94 0 0 1 468 33l3.2 2.3A140 140 0 0 1 513 85l1 2 7 14 1 2.3c7.6 15.8 14 32 20.5 48.3l8 19.8L582 249l1 2.5c8.6 21.4 8.6 21.4 5.8 28.6l-4.7 5a174 174 0 0 1-32.8 25.6q-7.7 5.4-15.2 11-9.6 7.1-19.3 14l-6 4.2a695 695 0 0 1-22.3 15.4q-4.8 3.2-9.6 6.7l-2 1.6-3.8 3A19 19 0 0 1 462 371c-3-4.1-5-8-6.7-12.7l-.8-1.9-2.2-6-2.5-6.4-1.6-4.2-6-15.4q-5.9-14.3-11.1-28.7c-10.8-28.5-10.8-28.5-16.1-41.7l-.8-1.9-10.7-26.4c-1.6-2.9-2.5-3.7-5.5-4.7l-.5 2.2q-2.6 11-7.3 21.4l-3 6.9-1.6 3.6L377 276l-1 2.2q-8.2 20.3-16.2 40.8l-4.5 11.6-1 2.6-5.1 13-1 2.6-2.1 5.3-6.2 16-4 10.2-1.8 4.8q-4.4 12-10.3 23.4l-1 1.9c-2.2 4.2-4 6.8-8.6 8.3l-7.1 1.8-5.5 1.4-2.8.7a530 530 0 0 0-56.1 16.2c-22 7.4-43.3 18-63 30.2q-4 2.5-8.3 4.7c-16 9.2-31.1 20-45.8 31.2l-9.1 6.5a191 191 0 0 0-12 9C102 522 102 522 100 522c.6-6 2.4-11 4.8-16.6l1.1-2.9 11.4-25.8q7.4-16.5 14.4-33.5l7.6-18.3.8-2 16.5-38.4c13.4-30.8 13.4-30.8 17.8-42q2.4-6.2 5.3-12.3 6.7-14.6 12.7-29.4l7.7-18.2 4.5-10.6.9-2 8-19a10652 10652 0 0 1 51.8-121.1c10.4-24.8 20.5-49 37.7-69.9l1.9-2.4L309 53h2l1-3h2v-2a121 121 0 0 1 84.6-33.2"/><path d="m660.5 436.5 2.5.5q4.5 8.1 7.3 17 2.8 8.4 6.4 16.3 4.8 10.5 8.9 21.5c15.6 41.1 32.9 81.6 50.1 122a4945 4945 0 0 1 35 84.2l2.5 5.9 4 9.6c1.6 4.3 2 7.9 1.8 12.5a81 81 0 0 1-23.5 5.6 208 208 0 0 1-31.2 2.6h-9.2l-9.3.1A148 148 0 0 1 605 698l-2.2-1.8q-7-6-12.8-13.2l-2.3-2.8C570.6 659 560.9 633 551 608l-1-2.4-28.1-71.2c-1.1-3-1-4.5.1-7.4q5.8-3.7 12.3-6.1 10-4.3 19.6-9.7 5.2-3 10.8-5c6.3-2.5 12-6 17.7-9.6l1.7-1a519 519 0 0 0 56-40.3A42 42 0 0 0 649 445c6.5-7.8 6.5-7.8 11.5-8.5"/></clipPath></defs><g clip-path="url(#sil)"><g fill="#5385a1"><path d="M888 11c2.1 3.2 2.2 3.7 2 7.3V21l-.2 2.9-.2 3q-1 15.9-2.6 31.8l-.5 6.3-1.6 16.5-1.5 16.5-.6 6.5-.3 3.2-.9 9.6q-3.5 37.6-6.5 75.3l-.3 3a4805 4805 0 0 0-4.7 66l-.5 6.7-.6 8.8-.2 3-.2 3-.2 2.5q-.7 3.9-2.4 7.5c-3.8-.5-5.8-1.3-8.6-4q-7.7-7-16.4-13c-29.4-21.6-29.4-21.6-33.5-25.4-2.4-2.1-4-3.5-7.2-4.2-3.1.8-3.8 1.9-5.5 4.6l-1.8 2.8-4.3 7q-7.4 12.1-16.3 23.4L764 295l-1.8 2.4q-5.4 6.9-10.4 14-11.6 16.3-24.8 31.3l-7.1 8.3a436 436 0 0 1-28 30.2q-6.2 6.1-11.9 12.9c-2.3 2.5-2.3 2.5-4 4h-2l-1 3c-1.5 1.5-1.5 1.5-3.4 3q-5 4.3-9.6 9a176 176 0 0 1-10.8 10l-5.1 4.8c-10 9.4-20.8 17.6-32 25.6q-5.2 3.6-10.2 7.7c-11.1 9-23.4 16.4-35.5 24q-6.2 3.7-12.3 7.7a452 452 0 0 1-129.2 55l-2.5.7q-16.5 4.4-33.3 8.2t-33.3 8l-10 2.5c-32.9 8.2-32.9 8.2-46.9 14l-2.8 1.2c-35.8 15.3-52.5 44-70.5 77A140 140 0 0 1 179 711l-3.2 2.1A144 144 0 0 1 119 732l-2.5.4a286 286 0 0 1-91-2.7A53 53 0 0 1 11 724a53 53 0 0 1 6-19.8l1.5-3.4L23 691l1.2-2.7q6.4-14 13.7-27.4l9.5-18.8c14-28.4 29-55.2 50.5-78.8l5.6-6.3 15.9-18q11.7-13.2 25.6-24l2.8-2.3q22.3-17.5 47.2-30.7l2.1-1.1c17.4-9.3 36.2-15 54.9-20.9l3.8-1.2a1024 1024 0 0 1 37-11q14.5-4 28.8-8.4l2.3-.7q11.6-3.6 23-7.4 8.8-2.9 17.7-4.9a456 456 0 0 0 95.5-35.2q9.7-4.7 19.8-8.5c7.9-3 15.5-6.4 21.8-12.2a76 76 0 0 1 18.1-12q12.3-6.1 23.2-14.5l2.1-1.7 5.8-4.6 2-1.6q7.5-6 14.3-12.7 5.7-5.3 11.9-10 9.8-7.6 18.9-16.4l2.2-2q6.6-6.8 12.4-14 3.8-4.6 7.9-9a310 310 0 0 0 18.7-22.1l2.2-2.8 6-7q10.1-12.2 19.3-25.2 3.8-5.5 7.8-10.9l18.5-25.8c3.5-4.9 6.8-9.6 9-15.2-3-10.1-22-18.7-30.2-24q-11.3-7.5-21.8-16l-2.3-1.8c-4.4-3.5-4.4-3.5-5.6-6-.1-3.4 1.6-4.8 3.9-7.2 9-5.6 19.3-9.2 29.1-12.8l12.3-4.6 2.5-1c26.3-9.8 52.2-20.8 78.1-31.6l5.9-2.4L798 45.5l45-18.8 4.8-1.9 14.3-6 2.6-1 4.9-2.2C882 10.3 882 10.3 888 11"/><path d="m398.6 14.8 6.9-.1c13.8-.1 27.3 1.4 40.3 6.5l2.4.9A94 94 0 0 1 468 33l3.2 2.3A140 140 0 0 1 513 85l1 2 7 14 1 2.3c7.6 15.8 14 32 20.5 48.3l8 19.8L582 249l1 2.5c8.6 21.4 8.6 21.4 5.8 28.6l-4.7 5a174 174 0 0 1-32.8 25.6q-7.7 5.4-15.2 11-9.6 7.1-19.3 14l-6 4.2a695 695 0 0 1-22.3 15.4q-4.8 3.2-9.6 6.7l-2 1.6-3.8 3A19 19 0 0 1 462 371c-3-4.1-5-8-6.7-12.7l-.8-1.9-2.2-6-2.5-6.4-1.6-4.2-6-15.4q-5.9-14.3-11.1-28.7c-10.8-28.5-10.8-28.5-16.1-41.7l-.8-1.9-10.7-26.4c-1.6-2.9-2.5-3.7-5.5-4.7l-.5 2.2q-2.6 11-7.3 21.4l-3 6.9-1.6 3.6L377 276l-1 2.2q-8.2 20.3-16.2 40.8l-4.5 11.6-1 2.6-5.1 13-1 2.6-2.1 5.3-6.2 16-4 10.2-1.8 4.8q-4.4 12-10.3 23.4l-1 1.9c-2.2 4.2-4 6.8-8.6 8.3l-7.1 1.8-5.5 1.4-2.8.7a530 530 0 0 0-56.1 16.2c-22 7.4-43.3 18-63 30.2q-4 2.5-8.3 4.7c-16 9.2-31.1 20-45.8 31.2l-9.1 6.5a191 191 0 0 0-12 9C102 522 102 522 100 522c.6-6 2.4-11 4.8-16.6l1.1-2.9 11.4-25.8q7.4-16.5 14.4-33.5l7.6-18.3.8-2 16.5-38.4c13.4-30.8 13.4-30.8 17.8-42q2.4-6.2 5.3-12.3 6.7-14.6 12.7-29.4l7.7-18.2 4.5-10.6.9-2 8-19a10652 10652 0 0 1 51.8-121.1c10.4-24.8 20.5-49 37.7-69.9l1.9-2.4L309 53h2l1-3h2v-2a121 121 0 0 1 84.6-33.2"/><path d="m660.5 436.5 2.5.5q4.5 8.1 7.3 17 2.8 8.4 6.4 16.3 4.8 10.5 8.9 21.5c15.6 41.1 32.9 81.6 50.1 122a4945 4945 0 0 1 35 84.2l2.5 5.9 4 9.6c1.6 4.3 2 7.9 1.8 12.5a81 81 0 0 1-23.5 5.6 208 208 0 0 1-31.2 2.6h-9.2l-9.3.1A148 148 0 0 1 605 698l-2.2-1.8q-7-6-12.8-13.2l-2.3-2.8C570.6 659 560.9 633 551 608l-1-2.4-28.1-71.2c-1.1-3-1-4.5.1-7.4q5.8-3.7 12.3-6.1 10-4.3 19.6-9.7 5.2-3 10.8-5c6.3-2.5 12-6 17.7-9.6l1.7-1a519 519 0 0 0 56-40.3A42 42 0 0 0 649 445c6.5-7.8 6.5-7.8 11.5-8.5"/></g><g fill="url(#g0)"><path d="M884 24c3 1 3 1 4.2 2.5 1.2 3.7.8 7.2.5 11l-.1 2.6q-1 13.8-2.3 27.6l-.6 5.5-1.3 14.5-2.1 22.8-.6 5.6a6097 6097 0 0 0-9.8 118.7l-.2 4-1.3 19.4-.5 7-.2 3.3c-1 14.6-1 14.6-5 19-2.7 1.5-2.7 1.5-5 1.4-3.8-1.3-6.7-3.6-9.8-6l-4.3-3.4-2.3-1.7-11.7-8.7c-24.3-17.8-24.3-17.8-28.6-22.1-2.2-.5-2.2-.5-5 0q-3.6 3.3-6.4 7.3l-1.9 2.3q-7.4 9.5-14.4 19.2a823 823 0 0 1-17.7 23.1l-4.6 6a627 627 0 0 1-51 58.2l-4 4-8.3 8.3-10.6 10.7-8.3 8.2-4 4A328 328 0 0 1 647 417l-4.4 4.1c-13 11.7-27.5 21.6-41.6 31.9l-2 1.4a498 498 0 0 1-33.3 22.4 520 520 0 0 1-140 62.6c-22.8 6.6-22.8 6.6-32 14.3-4.8 3.4-10.7 4.4-16.3 5.7l-7.8 2-21.6 5.3c-34.8 8.6-34.8 8.6-49 14.6l-2.9 1.1c-35.8 15.3-52.5 44-70.5 77a137 137 0 0 1-84 67.8c-34.4 9.7-88.4 15-122 .3A16 16 0 0 1 13 721c-.9-6.8 1.7-11.8 4.5-17.9L19 700a1150 1150 0 0 1 24.6-50.5c15.2-30.5 30.7-60.7 54.1-86q3-3 5.8-6.4l11-12.3 6-6.8q9.5-10.8 20.7-19.7l5.2-4.3a272 272 0 0 1 92.7-49.9l6.3-2Q266 455 287 449.5a941 941 0 0 0 60-18.3q8.9-2.9 17.7-4.9c34.4-8.2 67-21.3 98.9-36.5q10.9-5.2 22.2-9.5c7.2-3 13.2-7.5 19.2-12.5 5.6-4.5 12.7-10.1 20.1-9.7a16 16 0 0 1 11.1 8.6l1.6 2.7 2.9 5.9a16 16 0 0 0 6.4 6.6c3.4.9 6 1 9.6.8 6 .3 9.3 5 13.4 9.2 9.4-2.1 15.8-8 23-14l1.8-1.5 15-12.8a426 426 0 0 0 29.7-28l8.5-8.4 5.4-5.5 2.5-2.5q7.5-7.5 14.2-16l6.9-7.8q6-6.6 11.5-13.5l8.8-10.2q15-17.2 28.5-35.5l11-14.6q8.7-11.3 17.1-22.8l11.8-15.6q7-9 13.1-18.2 5.2-7.5 10.5-14.7 7.3-10 14.2-20.4 10-14.6 20.5-29 10-13.6 19.4-27.4a766 766 0 0 1 33.2-45c3.9-4.6 3.9-4.6 7.5-4.5"/></g><g fill="url(#g1)"><path d="M474 37.5c32.8 26.8 48.9 64.8 64.1 103.2l12 29.9 4.2 10.2 14.1 35 5.2 12.8 2.8 7c14 34.3 14 34.3 11.6 42.4-6.4 13.2-20 21.4-31.8 29.5l-10.6 7.4-2.2 1.5-15.3 11-2.3 1.7-11.3 8.2q-12.4 9-25 17.4a246 246 0 0 0-16.7 11.8c-3.4 1.8-5 2.2-8.8 1.5a23 23 0 0 1-9.3-11.9l-.9-2-2.8-7.1-11.5-29.3-4.5-11.6-3.6-9.2-1.4-3.5-1.2-2.9a24 24 0 0 1 .1-15c2.7-3.3 4.8-3.3 8.9-4 3.5-.8 5-1.7 7.2-4.5l1.4-5.8c2-8.8 6.3-13.1 13.1-19 5-4.3 7.4-8.4 10.1-14.4 3-6 8.3-9.7 13.4-13.8 2-3.9 1.5-7.5.2-11.5l-3.6-8.9q-.8-1.4-1.4-3.2c-11.3-26-25.2-46.2-52.2-57.4a79 79 0 0 0-60 1.4 92 92 0 0 0-35.1 33c-3.5 5.3-7 9.7-12.9 12.6-11.7 1.5-19.7-2.7-28.9-9.6-7-5-15.5-8.8-24.2-8.5-3.9.1-3.9.1-6.5-1.4-2.3-4-2-8.2-.8-12.6q1.2-3.4 2.7-6.7l1-2.6 5-11.8c18.8-43.2 41.1-85.2 87-104C392.5 7.3 440.6 11.6 474 37.4"/></g><g fill="url(#g2)"><path d="M444 142c18.8 14.3 28.8 32.3 37.7 53.9l1 2.4c1.9 4.7 2.9 8.6 2.3 13.7-2 3-4 5.2-6.9 7.5a41 41 0 0 0-11.4 15.4 36 36 0 0 1-10.3 11.3c-5.7 4.4-8 9.4-9.2 16.4a14 14 0 0 1-6.1 9.5c-4 1.7-7.3.3-11.1-1.1l-2.9-.5c-4.6-2.2-5.3-5.6-7-10.2l-1-2.7-5.3-14-1-2.8-2-5.4-4.2-11.4-1.2-3.3-1-2.7c-1.4-2-1.4-2-4.4-2.9-3-.1-3-.1-4.7 1-5.4 8-8.2 18.2-11.8 27l-19 47.6q-9 22-17 44a707 707 0 0 1-11.6 29l-6.2 16-2.6 6.8-1.7 4.3c-6.4 17.6-6.4 17.6-14.4 22.4-9.5 4.3-20.5 6-30.7 8.3-32.8 7.6-32.8 7.6-45.7 15.6l-4.6 2.6-2 1.2a48 48 0 0 1-18.6 7c-25.6 3.4-49.8 20.4-71.2 34L135 484l-2.8 1.8c-2.2 1.2-2.2 1.2-4.9 1-2.3-.8-2.3-.8-4.3-3.8.2-6.7 3-12.5 5.8-18.6l1.4-3.4 8-18.4 16.2-37q14.5-31.8 27.3-64.5c6.4-16.4 6.4-16.4 11.2-20.8 3.8-1.6 5.1-1.3 9.1-.3q4.6 2.2 9.1 4.8c5.5 3 10.7 5.7 16.8 7.4 5.2 1.6 7.2 3.1 10.1 7.8l3 6.3c1 1.7 1 1.7 4 3.7 3-.1 4.6-.6 6.9-2.4 3.1-3.8 4.8-8 6.7-12.6l1.3-3q5.6-13.5 10.9-27.2 11-28.3 23.2-56.1l11-25.7 4.9-11.9 12.9-30 1-2.4q5.3-11.5 13.2-21.7l1.7-2.3c25.7-32 72.7-36.3 105.3-12.7"/></g><g fill="url(#g3)"><path d="M880 15c1.9 2.6 1.9 2.6 3 5q-5.7 9.5-12.6 18C859 52 849 67 838.7 81.7q-10 14.3-20.1 28.3-7.6 10.4-14.7 21-6.4 9.2-13 18.3l-12 17q-11 15.6-22.7 30.8l-4 5.3-2.1 2.7-13.2 17.7a885 885 0 0 1-50.4 62.5l-14.2 16.6-1.5 1.7a476 476 0 0 1-22.8 24.7l-2.5 2.5-5.2 5.2-8 8c-15.2 15.3-15.2 15.3-23.1 21.4q-3.7 3-7 6c-24 22-24 22-33.2 21.7-2.5-2-4.1-4.2-6-6.7-4-3-6.5-2.4-11.3-2.2-4-.1-5.9-1.5-8.7-4.1a55 55 0 0 1-7.7-12l-1-1.7c-2-4-2.8-7-2.3-11.3 2.6-5.6 6.9-8.3 11.9-11.7 7.6-5.6 14.6-12 21.5-18.3q6-5.4 12.5-10.4a248 248 0 0 0 22.4-19.7q6.6-6.6 12.3-14 3.8-4.5 7.9-8.9 6.4-6.9 12.2-14.2l6.3-7.5q21-25 39.5-52l8-11c13.9-19 13.9-19 15.5-24.3-2.7-10-22.2-18.8-30.2-24-23.1-15.4-23.1-15.4-26.7-23-.1-3.4 1-5.2 2.9-8 5.1-4 11-6.5 17-8.8l2.7-1 25.3-9.7a2098 2098 0 0 0 66.8-27L792 47.9l6-2.5 40.3-16.7 2.5-1 2.5-1 2.3-1 4.6-2 11.4-4.8 2.3-1 4.4-1.9c4.2-1.8 7.1-2.4 11.6-1"/></g><g fill="url(#g4)"><path d="M659.5 440c4.3 1.2 5 2.3 7.5 6q2 4.2 3.6 8.6l2 5.4 1.2 3 6.5 16 10.7 26.8c12 31 25 61.4 38 92a7435 7435 0 0 1 39.6 95.4l2.4 5.8 2.8 6.9 1.3 3 1 2.6q1.5 4.1 1.9 8.5a19 19 0 0 1-7 8c-2 .3-2 .3-4.5.4l-2.8.2h-3l-3.2.2-6.7.3q-5 0-10 .4c-59.4 2.4-59.4 2.4-71.8-7.5-3-3.5-3.7-6.8-3.5-11.3a38 38 0 0 1 13-21.3c5.4-3 11.5-4.1 17.5-5.4 1.3-5.4 1.3-5.4 0-7.9q-1-.7-1.7-1.7l-2-2-2.3-2.4c-35.4-39.3-53-93-71.9-141.5l-5.6-14.8-.8-2-2-5.6c-2-3.7-4-5.1-7.7-7.1-4.7 0-8 2.8-11.7 5.4a298 298 0 0 1-38.5 21.7l-3 1.4c-5 2.4-9.2 4.3-14.8 4.5-2-1-2-1-3-3-.2-2.7-.2-2.7 1-6 3.1-2.5 6.5-4.2 10-6l3.1-1.5q8.1-4.3 16.5-7.7c17.2-7 33.8-18.3 48.4-29.5l8-5.8c11.6-8 23.4-16.8 32.4-27.7 3-3.3 4.5-4.8 9.1-4.8"/></g><g fill="url(#g5)"><path d="M601.6 498c4.6 2 7.4 4.4 9.3 9l1.9 4.9 2 5.4 1.1 2.9 5.4 13.5 2.1 5.5c33.3 83.3 33.3 83.3 52.6 111.8l1.2 1.8a114 114 0 0 0 16 18.7c2.3 2.4 3.8 4.4 4.9 7.6-.1 2.9-.1 2.9-1.6 5.2-3 2-5.2 2.5-8.8 3A22 22 0 0 0 673 696c-4.3 6.7-7.4 13-6 21 1 3.6 1 3.6 2 6-1.4 2-1.4 2-4 4a33 33 0 0 1-20.2-4l-2.8-1.2c-51.9-23.6-73-69-93-119.2l-3.8-9.4-8.9-22.3-5-12.5-2.2-5.6-1-2.4c-2-5-2.5-9-2.1-14.4 1.3-2.4 1.3-2.4 4-4l5-.8a64 64 0 0 0 18-6.7l3.4-1.6a241 241 0 0 0 37.7-22c2.6-1.8 4.3-2.9 7.5-3"/></g><g fill="url(#g6)"><path d="M276.6 163a70 70 0 0 1 17.4 10 38 38 0 0 0 17.3 6.8c3.6.7 5.4 1.3 7.5 4.3 1.3 3.2 1.2 4.9 0 8.1l-.9 2.4-4.5 11-1 2.5-2.3 5.2-3.6 8.4-5 11.6a2971 2971 0 0 0-41.3 99.8l-1.1 2.9c-4.7 11.2-4.7 11.2-9 14.4-2.9.8-4.4.6-7-.4-3.4-3.3-5.2-7-7-11.1-2.3-3.9-5.6-5.2-9.7-6.3a76 76 0 0 1-15.2-6.4l-2.5-1.3c-6-3.1-10.5-6.1-12.6-12.9a23 23 0 0 1 2-9.6l.8-2q4.7-11.4 9.9-22.4 7-15.7 13.4-31.8 9.3-23 19.5-46l2.2-5 1.1-2.4a498 498 0 0 0 9.2-22c4.3-10.7 12.3-11.4 22.4-7.9"/></g><g fill="url(#g7)"><path d="m193 455 1 3c-4.6 5.3-10.3 8.3-16.3 11.8a604 604 0 0 0-60 40.7l-2.6 2-2 1.6c-2.8 1.2-4.3 1-7.1-.1-2-3-2-3-1.6-6.8q1.9-6.5 5-12.6l.8-1.9c1.4-2.8 2.5-4.5 5.2-6.1 2.9-.7 4.9-.4 7.8 0 8.9.1 15.3-5.4 22.4-10a194 194 0 0 1 11.5-6.8l2.3-1.2q7.5-4.2 15.2-8l2-1c12-6 12-6 16.4-4.6"/></g><g fill="url(#g8)"><path d="m537 497 1 3c-2.3 2.5-4.6 4-7.6 5.7l-2.9 1.6a419 419 0 0 1-71 30.4l-2.1.7c-7 2.2-7 2.2-10.4 2.6-1.8-1.4-1.8-1.4-3-3 1-3 1-3 2.8-4l2.6-.7 3-1.1 3.6-1.2a582 582 0 0 0 70.5-30l2-1 3.9-2c4.3-2.1 4.3-2.1 7.6-1"/></g></g></svg>
